function data()
return { 
		subMeshes = {
			{ 
				indices = { 
					normal = { 
						count = 44832,
						offset = 482152,
					},
					position = { 
						count = 44832,
						offset = 392488,
					},
					tangent = { 
						count = 44832,
						offset = 526984,
					},
					uv0 = { 
						count = 44832,
						offset = 437320,
					},
				},
			},
		},
		vertexAttr = { 
			normal = { 
				count = 134496,
				numComp = 3,
				offset = 78664,
			},
			position = { 
				count = 42096,
				numComp = 3,
				offset = 0,
			},
			tangent = { 
				count = 179328,
				numComp = 4,
				offset = 213160,
			},
			uv0 = { 
				count = 36568,
				numComp = 2,
				offset = 42096,
			},
		},
	}
end