function data()
return { 
		subMeshes = {
			{ 
				indices = { 
					normal = { 
						count = 139692,
						offset = 1504912,
					},
					position = { 
						count = 139692,
						offset = 1225528,
					},
					tangent = { 
						count = 139692,
						offset = 1644604,
					},
					uv0 = { 
						count = 139692,
						offset = 1365220,
					},
				},
			},
		},
		vertexAttr = { 
			normal = { 
				count = 419076,
				numComp = 3,
				offset = 247684,
			},
			position = { 
				count = 131172,
				numComp = 3,
				offset = 0,
			},
			tangent = { 
				count = 558768,
				numComp = 4,
				offset = 666760,
			},
			uv0 = { 
				count = 116512,
				numComp = 2,
				offset = 131172,
			},
		},
	}
end