function data()
return { 
		subMeshes = {
			{ 
				indices = { 
					normal = { 
						count = 18120,
						offset = 191840,
					},
					position = { 
						count = 18120,
						offset = 155600,
					},
					tangent = { 
						count = 18120,
						offset = 209960,
					},
					uv0 = { 
						count = 18120,
						offset = 173720,
					},
				},
			},
		},
		vertexAttr = { 
			normal = { 
				count = 54360,
				numComp = 3,
				offset = 28760,
			},
			position = { 
				count = 16104,
				numComp = 3,
				offset = 0,
			},
			tangent = { 
				count = 72480,
				numComp = 4,
				offset = 83120,
			},
			uv0 = { 
				count = 12656,
				numComp = 2,
				offset = 16104,
			},
		},
	}
end