function data()
return { 
		subMeshes = {
			{ 
				indices = { 
					normal = { 
						count = 29208,
						offset = 313440,
					},
					position = { 
						count = 29208,
						offset = 255024,
					},
					tangent = { 
						count = 29208,
						offset = 342648,
					},
					uv0 = { 
						count = 29208,
						offset = 284232,
					},
				},
			},
		},
		vertexAttr = { 
			normal = { 
				count = 87624,
				numComp = 3,
				offset = 50568,
			},
			position = { 
				count = 29400,
				numComp = 3,
				offset = 0,
			},
			tangent = { 
				count = 116832,
				numComp = 4,
				offset = 138192,
			},
			uv0 = { 
				count = 21168,
				numComp = 2,
				offset = 29400,
			},
		},
	}
end