function data()
return { 
		subMeshes = {
			{ 
				indices = { 
					normal = { 
						count = 3288,
						offset = 36816,
					},
					position = { 
						count = 3288,
						offset = 30240,
					},
					tangent = { 
						count = 3288,
						offset = 40104,
					},
					uv0 = { 
						count = 3288,
						offset = 33528,
					},
					uv1 = { 
						count = 3288,
						offset = 43392,
					},
				},
			},
		},
		vertexAttr = { 
			normal = { 
				count = 9864,
				numComp = 3,
				offset = 5160,
			},
			position = { 
				count = 3096,
				numComp = 3,
				offset = 0,
			},
			tangent = { 
				count = 13152,
				numComp = 4,
				offset = 15024,
			},
			uv0 = { 
				count = 2064,
				numComp = 2,
				offset = 3096,
			},
			uv1 = { 
				count = 2064,
				numComp = 2,
				offset = 28176,
			},
		},
	}
end