function data()
return { 
		subMeshes = {
			{ 
				indices = { 
					normal = { 
						count = 1920,
						offset = 24616,
					},
					position = { 
						count = 1920,
						offset = 20776,
					},
					tangent = { 
						count = 1920,
						offset = 26536,
					},
					uv0 = { 
						count = 1920,
						offset = 22696,
					},
					uv1 = { 
						count = 1920,
						offset = 28456,
					},
				},
			},
			{ 
				indices = { 
					normal = { 
						count = 24,
						offset = 30424,
					},
					position = { 
						count = 24,
						offset = 30376,
					},
					tangent = { 
						count = 24,
						offset = 30448,
					},
					uv0 = { 
						count = 24,
						offset = 30400,
					},
					uv1 = { 
						count = 24,
						offset = 30472,
					},
				},
			},
		},
		vertexAttr = { 
			normal = { 
				count = 5832,
				numComp = 3,
				offset = 5120,
			},
			position = { 
				count = 3072,
				numComp = 3,
				offset = 0,
			},
			tangent = { 
				count = 7776,
				numComp = 4,
				offset = 10952,
			},
			uv0 = { 
				count = 2048,
				numComp = 2,
				offset = 3072,
			},
			uv1 = { 
				count = 2048,
				numComp = 2,
				offset = 18728,
			},
		},
	}
end